<?xml version="1.0" standalone="no"?><!DOCTYPE svg PUBLIC "-//W3C//DTD SVG 1.1//EN" "http://www.w3.org/Graphics/SVG/1.1/DTD/svg11.dtd"><svg class="icon" width="200px" height="200.00px" viewBox="0 0 1024 1024" version="1.1" xmlns="http://www.w3.org/2000/svg"><path fill="#f86705" d="M788.934287 519.513114c0-8.882298 7.14984-16.07307 16.049534-16.07307 8.855692 0 16.059767 7.190773 16.059767 16.07307 0 8.858762-7.204076 16.049534-16.059767 16.049534C796.084127 535.562649 788.934287 528.371876 788.934287 519.513114zM751.470023 589.102029c8.844435 0 16.021905-7.193843 16.021905-16.102746 0-8.829086-7.17747-15.995299-16.021905-15.995299-8.858762 0-16.087397 7.166213-16.087397 15.995299C735.38365 581.90921 742.612285 589.102029 751.470023 589.102029zM644.36568 589.102029c8.885368 0 16.062837-7.193843 16.062837-16.102746 0-8.829086-7.17747-15.995299-16.062837-15.995299-8.842389 0-16.046464 7.166213-16.046464 15.995299C628.319216 581.90921 635.523291 589.102029 644.36568 589.102029zM751.470023 482.025315c8.844435 0 16.021905-7.190773 16.021905-16.07614 0-8.803503-7.17747-16.045441-16.021905-16.045441-8.858762 0-16.087397 7.241938-16.087397 16.045441C735.38365 474.834542 742.612285 482.025315 751.470023 482.025315zM644.36568 482.025315c8.885368 0 16.062837-7.190773 16.062837-16.07614 0-8.803503-7.17747-16.045441-16.062837-16.045441-8.842389 0-16.046464 7.241938-16.046464 16.045441C628.319216 474.834542 635.523291 482.025315 644.36568 482.025315zM590.882582 642.612757c8.842389 0 16.021905-7.190773 16.021905-16.049534 0-8.855692-7.179516-16.07307-16.021905-16.07307-8.898671 0-16.089443 7.217379-16.089443 16.07307C574.792115 635.421984 581.982888 642.612757 590.882582 642.612757zM697.919387 642.612757c8.842389 0 16.046464-7.190773 16.046464-16.049534 0-8.855692-7.204076-16.07307-16.046464-16.07307-8.872065 0-16.049534 7.217379-16.049534 16.07307C681.869852 635.421984 689.047322 642.612757 697.919387 642.612757zM590.882582 535.562649c8.842389 0 16.021905-7.190773 16.021905-16.049534 0-8.882298-7.179516-16.07307-16.021905-16.07307-8.898671 0-16.089443 7.190773-16.089443 16.07307C574.792115 528.371876 581.982888 535.562649 590.882582 535.562649zM697.919387 535.562649c8.842389 0 16.046464-7.190773 16.046464-16.049534 0-8.882298-7.204076-16.07307-16.046464-16.07307-8.872065 0-16.049534 7.190773-16.049534 16.07307C681.869852 528.371876 689.047322 535.562649 697.919387 535.562649zM537.328875 589.102029c8.858762 0 16.062837-7.193843 16.062837-16.102746 0-8.829086-7.204076-15.995299-16.062837-15.995299-8.92323 0-16.07307 7.166213-16.07307 15.995299C521.254781 581.90921 528.405645 589.102029 537.328875 589.102029zM430.264441 589.102029c8.872065 0 16.049534-7.193843 16.049534-16.102746 0-8.829086-7.17747-15.995299-16.049534-15.995299-8.868995 0-16.07307 7.166213-16.07307 15.995299C414.19137 581.90921 421.395446 589.102029 430.264441 589.102029zM537.328875 482.025315c8.858762 0 16.062837-7.190773 16.062837-16.07614 0-8.803503-7.204076-16.045441-16.062837-16.045441-8.92323 0-16.07307 7.241938-16.07307 16.045441C521.254781 474.834542 528.405645 482.025315 537.328875 482.025315zM430.264441 482.025315c8.872065 0 16.049534-7.190773 16.049534-16.07614 0-8.803503-7.17747-16.045441-16.049534-16.045441-8.868995 0-16.07307 7.241938-16.07307 16.045441C414.19137 474.834542 421.395446 482.025315 430.264441 482.025315zM376.74041 642.612757c8.855692 0 16.035208-7.190773 16.035208-16.049534 0-8.855692-7.179516-16.07307-16.035208-16.07307-8.896624 0-16.07614 7.217379-16.07614 16.07307C360.66427 635.421984 367.843786 642.612757 376.74041 642.612757zM483.818147 642.612757c8.81476 0 16.021905-7.190773 16.021905-16.049534 0-8.855692-7.207146-16.07307-16.021905-16.07307-8.909927 0-16.089443 7.217379-16.089443 16.07307C467.728704 635.421984 474.90822 642.612757 483.818147 642.612757zM376.74041 535.562649c8.855692 0 16.035208-7.190773 16.035208-16.049534 0-8.882298-7.179516-16.07307-16.035208-16.07307-8.896624 0-16.07614 7.190773-16.07614 16.07307C360.66427 528.371876 367.843786 535.562649 376.74041 535.562649zM483.818147 535.562649c8.81476 0 16.021905-7.190773 16.021905-16.049534 0-8.882298-7.207146-16.07307-16.021905-16.07307-8.909927 0-16.089443 7.190773-16.089443 16.07307C467.728704 528.371876 474.90822 535.562649 483.818147 535.562649zM323.200006 589.102029c8.872065 0 16.049534-7.193843 16.049534-16.102746 0-8.829086-7.17747-15.995299-16.049534-15.995299-8.868995 0-16.046464 7.166213-16.046464 15.995299C307.154565 581.90921 314.331012 589.102029 323.200006 589.102029zM216.138642 589.102029c8.868995 0 16.07307-7.193843 16.07307-16.102746 0-8.829086-7.204076-15.995299-16.07307-15.995299-8.885368 0-16.062837 7.166213-16.062837 15.995299C200.076828 581.90921 207.253274 589.102029 216.138642 589.102029zM323.200006 482.025315c8.872065 0 16.049534-7.190773 16.049534-16.07614 0-8.803503-7.17747-16.045441-16.049534-16.045441-8.868995 0-16.046464 7.241938-16.046464 16.045441C307.154565 474.834542 314.331012 482.025315 323.200006 482.025315zM216.138642 482.025315c8.868995 0 16.07307-7.190773 16.07307-16.07614 0-8.803503-7.204076-16.045441-16.07307-16.045441-8.885368 0-16.062837 7.241938-16.062837 16.045441C200.076828 474.834542 207.253274 482.025315 216.138642 482.025315zM269.676999 642.612757c8.855692 0 16.062837-7.190773 16.062837-16.049534 0-8.855692-7.207146-16.07307-16.062837-16.07307-8.896624 0-16.021905 7.217379-16.021905 16.07307C253.654071 635.421984 260.780375 642.612757 269.676999 642.612757zM269.676999 535.562649c8.855692 0 16.062837-7.190773 16.062837-16.049534 0-8.882298-7.207146-16.07307-16.062837-16.07307-8.896624 0-16.021905 7.190773-16.021905 16.07307C253.654071 528.371876 260.780375 535.562649 269.676999 535.562649zM928.106999 855.631338l0 1.188058c-0.078795 55.389518-44.944632 100.30959-100.334149 100.414991L193.321984 957.234387c-55.337329-0.105401-100.255355-45.025473-100.336196-100.414991l0-1.161453 37.174668-408.90497c0.528026-41.215704 25.974581-76.511581 61.9704-91.501994 0.319272-80.875982 36.47268-154.11196 93.976348-206.487841 57.755402-52.665477 137.126101-84.947717 224.478588-84.947717 87.275739 0 166.644391 32.282241 224.426399 84.947717 57.477063 52.375881 93.660146 125.611859 93.923136 206.487841 36.023448 14.990413 61.470003 50.232055 62.052265 91.501994l37.041638 407.791613L928.106999 855.631338zM237.196237 347.608929l546.725896 0c-2.472308-64.429405-31.713282-122.647341-78.972633-165.875888-49.438992-45.079708-118.139677-73.28919-194.364733-73.28919-76.273151 0-144.974859 28.210505-194.415898 73.28919C268.882913 224.961588 239.695151 283.179524 237.196237 347.608929zM182.178179 449.187419l-5.672186 62.685691c1.269923 2.301416 2.181689 4.813632 2.181689 7.640004 0 3.833305-1.534959 7.193843-3.808746 9.968026l-3.568269 39.339983c3.9121 7.853875 8.974395 15.653515 15.957437 23.50432 16.232706 18.269086 41.032532 35.850509 72.494081 50.707892 33.749662 16.07614 75.258031 28.820396 121.564683 37.358863 0.898463-8.011464 7.455809-14.33038 15.732309-14.33038 8.882298 0 16.035208 7.166213 16.035208 16.07614 0 1.136893-0.424672 2.14178-0.623193 3.197832 10.894118 1.480724 21.904892 2.804882 33.221636 3.808746 9.795087-26.466792 35.029818-45.396933 64.891939-45.396933 29.837562 0 55.113225 18.983353 64.854077 45.502333 18.377556-1.613754 36.128849-3.966335 53.328579-6.873548-0.105401-0.793062-0.449231-1.454118-0.449231-2.273786 0-8.882298 7.204076-16.07614 16.046464-16.07614 7.615445 0 13.669324 5.395894 15.334243 12.42703 47.841611-10.523681 89.550549-25.803689 122.030287-43.99398-1.572822-2.485611-2.724041-5.260817-2.724041-8.381901 0-8.909927 7.231705-16.046464 16.087397-16.046464 5.580089 0 10.257621 3.040243 13.127995 7.374968 9.992585-7.401574 18.705014-15.123442 25.606191-23.080671 3.885494-4.336772 7.057743-8.671497 9.873882-13.008268-0.830925-1.929955-1.25662-4.045129-1.25662-6.318916 0-5.233188 2.671852-9.676383 6.583952-12.610202l-10.097986-111.228267 0-1.189082c-0.013303-15.044648-7.271614-28.421306-18.295692-37.357839 0.105401 0.661056 0.408299 1.215688 0.408299 1.824555 0 8.882298-7.204076 16.07307-16.059767 16.07307-8.898671 0-16.049534-7.190773-16.049534-16.07307 0-5.052063 2.485611-9.386788 6.15928-12.348236-1.531889-0.13303-2.972705-0.449231-4.520967-0.449231L707.118909 399.639956c4.030803 2.907213 6.846942 7.429203 6.846942 12.797467 0 8.882298-7.204076 16.07307-16.046464 16.07307-8.872065 0-16.049534-7.190773-16.049534-16.07307 0-5.368264 2.788509-9.890254 6.819313-12.797467l-88.662319 0c4.058432 2.907213 6.876618 7.429203 6.876618 12.797467 0 8.882298-7.179516 16.07307-16.021905 16.07307-8.898671 0-16.089443-7.190773-16.089443-16.07307 0-5.368264 2.829442-9.890254 6.887874-12.797467l-88.688925 0c4.033873 2.907213 6.850012 7.429203 6.850012 12.797467 0 8.882298-7.207146 16.07307-16.021905 16.07307-8.909927 0-16.089443-7.190773-16.089443-16.07307 0-5.368264 2.815115-9.890254 6.887874-12.797467l-88.700181 0c4.069689 2.907213 6.860245 7.429203 6.860245 12.797467 0 8.882298-7.179516 16.07307-16.035208 16.07307-8.896624 0-16.07614-7.190773-16.07614-16.07307 0-5.368264 2.815115-9.890254 6.886851-12.797467l-88.675622 0c4.047176 2.907213 6.863315 7.429203 6.863315 12.797467 0 8.882298-7.207146 16.07307-16.062837 16.07307-8.896624 0-16.021905-7.190773-16.021905-16.07307 0-5.368264 2.815115-9.890254 6.809079-12.797467l-29.942963 0c-26.399253 0.054235-48.290843 21.918195-48.342008 48.330752L182.180226 449.187419zM876.074949 857.824283l-21.255093-234.06185c-20.147876 20.280906-46.24116 38.018895-77.559447 52.879348-53.840232 25.486464-122.423237 42.881646-198.647269 49.544393-6.080485 32.017204-34.198893 56.342216-68.027349 56.342216-33.906228 0-61.998029-24.325012-68.078515-56.421011-120.429837-10.441816-221.292012-47.405683-276.207739-102.21294l-21.282722 233.929844c0.568958 25.963325 22.262026 47.326888 48.304146 47.378054l634.45189 0C853.867158 905.151172 875.53362 883.787608 876.074949 857.824283z" /></svg>