<?xml version="1.0" standalone="no"?><!DOCTYPE svg PUBLIC "-//W3C//DTD SVG 1.1//EN" "http://www.w3.org/Graphics/SVG/1.1/DTD/svg11.dtd"><svg class="icon" width="200px" height="200.00px" viewBox="0 0 1024 1024" version="1.1" xmlns="http://www.w3.org/2000/svg"><path fill="#f86705" d="M628.8 752H387.2c-3.2 0-8 6.4-8 9.6l-32 96c0 4.8 4.8 6.4 9.6 6.4h302.4c4.8 0 9.6 0 9.6-4.8l-32-99.2c-1.6-3.2-4.8-8-8-8zM872 160h-720c-12.8 0-24 11.2-24 24v496c0 12.8 11.2 24 24 24h720c12.8 0 24-11.2 24-24v-496c0-12.8-11.2-24-24-24zM832 608H192V240h640v368z" /></svg>