<?xml version="1.0" standalone="no"?><!DOCTYPE svg PUBLIC "-//W3C//DTD SVG 1.1//EN" "http://www.w3.org/Graphics/SVG/1.1/DTD/svg11.dtd"><svg class="icon" width="200px" height="200.00px" viewBox="0 0 1024 1024" version="1.1" xmlns="http://www.w3.org/2000/svg"><path fill="#f86705" d="M1008 495.744c-60.928-118.976-176.192-12.096-160.448 39.296 15.68 51.328-8.32 98.688-8.32 98.688s-150.208-82.88-335.808-82.88c-166.72 0-324.352 76.032-324.352 76.032 34.368-63.36-27.712-235.456-135.552-161.152-109.12 75.008 40.448 371.904 40.448 371.904 9.408 29.376 42.368 25.28 42.368 25.28h8.32c-0.576 2.816-1.6 5.44-1.6 8.384v22.72c0 20.608 16.704 37.376 37.312 37.376h8.704a37.44 37.44 0 0 0 37.44-37.376v-22.72c0-2.944-1.088-5.568-1.728-8.384l598.592-0.064c-0.64 2.88-1.728 5.504-1.728 8.448v22.72c0 20.608 16.832 37.376 37.44 37.376h8.64a37.44 37.44 0 0 0 37.44-37.376v-22.72c0-2.944-1.088-5.568-1.664-8.448h2.048c21.12 0.576 33.152-8.384 46.208-25.216 12.992-16.768 112.896-250.816 66.24-341.888z"  /><path fill="#f86705" d="M209.472 581.952c314.24-158.784 611.648 0 611.648 0-23.168-155.136 114.688-179.712 114.688-179.712-3.712-89.344 6.976-316.288-448.832-309.504-439.104 6.592-392.128 309.504-392.128 309.504 137.088 47.552 114.624 179.712 114.624 179.712z"  /></svg>