<?xml version="1.0" standalone="no"?><!DOCTYPE svg PUBLIC "-//W3C//DTD SVG 1.1//EN" "http://www.w3.org/Graphics/SVG/1.1/DTD/svg11.dtd"><svg class="icon" width="200px" height="200.00px" viewBox="0 0 1024 1024" version="1.1" xmlns="http://www.w3.org/2000/svg"><path fill="#f86705" d="M294.302351 407.807986l-63.773466 0 71.745021-232.063333L158.782841 175.744653l0 680.535461L79.066265 856.280114 79.066265 116.807333l322.854129 0-89.681532 291.000654 59.787688 0 0 403.348418L244.478596 811.156404l-29.893844-60.779272 79.717599 0L294.302351 407.807986zM876.23612 728.276788l61.780065 128.003326-85.694731 0L688.901501 525.680581 573.311903 525.680581l0 239.431138 147.475819-40.518832 0 66.304102-263.066441 70.907956L457.721281 796.421818l35.873022-11.050684L493.594303 105.756649l448.408683 0 0 419.923932L776.589632 525.680581l71.745021 139.974985 113.597221-57.095369 0 77.354785L876.23612 728.276788zM573.311903 166.534897l0 119.715569 288.974507 0L862.28641 166.534897 573.311903 166.534897zM862.285387 464.902332 862.285387 347.028715 573.311903 347.028715l0 117.873618L862.285387 464.902332z" /></svg>