<?xml version="1.0" standalone="no"?><!DOCTYPE svg PUBLIC "-//W3C//DTD SVG 1.1//EN" "http://www.w3.org/Graphics/SVG/1.1/DTD/svg11.dtd"><svg class="icon" width="200px" height="200.00px" viewBox="0 0 1024 1024" version="1.1" xmlns="http://www.w3.org/2000/svg"><path fill="#f86705" d="M863.807284 0H159.018067a88.098652 88.098652 0 0 0-88.098652 88.098652v847.802696a88.098652 88.098652 0 0 0 88.098652 88.098652h704.789217a88.098652 88.098652 0 0 0 88.098652-88.098652V88.098652a88.098652 88.098652 0 0 0-88.098652-88.098652zM159.018067 58.732435h704.789217a29.366217 29.366217 0 0 1 29.366218 29.366217v123.925437H129.65185V88.098652a29.366217 29.366217 0 0 1 29.366217-29.366217z m704.789217 906.53513H159.018067a29.366217 29.366217 0 0 1-29.366217-29.366217V270.756524h763.521652v665.144824a29.366217 29.366217 0 0 1-29.366218 29.366217z"  /><path fill="#f86705" d="M795.090336 134.497276m-44.049327 0a44.049326 44.049326 0 1 0 88.098653 0 44.049326 44.049326 0 1 0-88.098653 0Z"  /><path fill="#f86705" d="M664.70433 134.497276m-44.049326 0a44.049326 44.049326 0 1 0 88.098652 0 44.049326 44.049326 0 1 0-88.098652 0Z"  /><path fill="#f86705" d="M511.412676 349.751649a268.407227 268.407227 0 1 0 268.113564 268.407227A268.700889 268.700889 0 0 0 511.412676 349.751649z m0 477.788357a209.674792 209.674792 0 1 1 209.38113-209.38113A209.674792 209.674792 0 0 1 511.412676 827.540006z"  /></svg>