<?xml version="1.0" standalone="no"?><!DOCTYPE svg PUBLIC "-//W3C//DTD SVG 1.1//EN" "http://www.w3.org/Graphics/SVG/1.1/DTD/svg11.dtd"><svg class="icon" width="200px" height="200.00px" viewBox="0 0 1024 1024" version="1.1" xmlns="http://www.w3.org/2000/svg"><path fill="#f86705" d="M232.2944 870.0416A454.3488 454.3488 0 1 0 791.7056 153.9584 454.3488 454.3488 0 0 0 232.2944 870.0416z m-34.0992 43.6224C-23.552 740.352-62.9248 420.0448 110.336 198.144 283.648-23.552 603.9552-62.9248 825.856 110.336c221.7984 173.312 261.12 493.6192 87.8592 715.4688-173.312 221.7984-493.6192 261.12-715.4688 87.8592z"  /><path fill="#f86705" d="M388.7616 465.0496a672.3584 672.3584 0 0 0 217.2928 164.4032c6.4512-9.472 13.312-18.8416 20.48-28.0064a507.9552 507.9552 0 0 1 328.3968-190.6176c4.096 18.0224 7.168 36.2496 9.0112 54.6304a452.8128 452.8128 0 0 0-305.8176 186.0608c87.5008 32.768 179.7632 46.2848 270.848 41.2672a452.5056 452.5056 0 0 1-29.3376 56.32c-91.648 0.9728-183.8592-15.36-271.36-49.7152a453.0688 453.0688 0 0 0-52.0704 262.4c-18.2784 2.56-36.7104 4.096-55.1936 4.4544a508.3136 508.3136 0 0 1 56.3712-289.1264 727.04 727.04 0 0 1-130.7136-81.5104 728.2176 728.2176 0 0 1-97.3824-91.648 508.5696 508.5696 0 0 1-276.6848 123.648 456.8576 456.8576 0 0 1-10.8032-54.4768 453.376 453.376 0 0 0 252.416-112.0256 721.8688 721.8688 0 0 1-126.0544-267.8272c15.0016-15.3088 30.9248-29.3376 47.5648-42.0864a667.392 667.392 0 0 0 117.9136 270.1312 452.9664 452.9664 0 0 0 108.8-360.96c18.432-2.048 36.9152-2.9184 55.4496-2.7136a508.1088 508.1088 0 0 1-129.1264 407.3984z"  /></svg>