<?xml version="1.0" standalone="no"?><!DOCTYPE svg PUBLIC "-//W3C//DTD SVG 1.1//EN" "http://www.w3.org/Graphics/SVG/1.1/DTD/svg11.dtd"><svg class="icon" width="200px" height="200.00px" viewBox="0 0 1024 1024" version="1.1" xmlns="http://www.w3.org/2000/svg"><path fill="#999999" d="M852.133029 386.619008 852.133029 409.11363 852.133029 443.206035 852.133029 886.410877C852.133029 961.725542 791.080459 1022.78169 715.763411 1022.78169L306.649781 1022.78169C231.33631 1022.78169 170.278969 961.724348 170.278969 886.410877L170.278969 579.575654 170.278969 409.11363 170.278969 375.020033C170.278969 360.72814 179.108734 348.577229 191.580315 343.510873L330.558214 203.530431C278.924296 198.348442 238.463779 155.27607 238.463779 102.277216 238.463779 45.789132 284.258871 0 340.742187 0L408.926997 0 613.485004 0 681.669814 0C738.15909 0 783.947031 45.790324 783.947031 102.277216 783.947031 153.949281 745.501133 196.230109 695.732827 203.137043L846.402685 354.897658C854.047516 364.099352 855.419608 375.977276 852.133029 386.619008L852.133029 386.619008ZM715.763411 102.278407C715.763411 83.448252 700.49997 68.186002 681.669814 68.186002L340.744571 68.186002C321.917991 68.186002 306.652166 83.449444 306.652166 102.278407 306.652166 121.107371 321.919183 136.370813 340.744571 136.370813L681.672198 136.370813C700.49997 136.370813 715.763411 121.107371 715.763411 102.278407L715.763411 102.278407ZM783.94822 647.760464 783.94822 477.29844 511.206596 477.29844 511.206596 818.226068 783.94822 818.226068 783.94822 647.760464 783.94822 647.760464ZM477.114191 886.410877C458.287611 886.410877 443.020594 871.147435 443.020594 852.317281L443.020594 443.206035C443.020594 424.375879 458.287611 409.11363 477.114191 409.11363L783.94822 409.11363 783.94822 388.390445 601.434229 204.556815 425.24424 204.556815 238.463779 392.683138 238.463779 409.11363 238.463779 579.575654 238.463779 886.410877C238.463779 924.069996 268.994238 954.595686 306.649781 954.595686L715.763411 954.595686C753.422529 954.595686 783.94822 924.069996 783.94822 886.410877L477.114191 886.410877 477.114191 886.410877ZM749.855818 681.85406 715.762219 681.85406 715.762219 715.946468C715.762219 734.776622 700.498778 750.041259 681.668622 750.041259 662.842042 750.041259 647.575025 734.776622 647.575025 715.946468L647.575025 681.85406 613.483812 681.85406C594.657232 681.85406 579.389022 666.589429 579.389022 647.759275 579.389022 628.93031 594.657232 613.665678 613.483812 613.665678L647.576217 613.665678 647.576217 579.572082C647.576217 560.741923 662.843234 545.479674 681.669814 545.479674 700.49997 545.479674 715.763411 560.743115 715.763411 579.572082L715.763411 613.665678 749.857007 613.665678C768.687167 613.665678 783.949414 628.93031 783.949414 647.759275 783.949414 666.589429 768.684783 681.85406 749.855818 681.85406L749.855818 681.85406Z" /></svg>