<?xml version="1.0" standalone="no"?><!DOCTYPE svg PUBLIC "-//W3C//DTD SVG 1.1//EN" "http://www.w3.org/Graphics/SVG/1.1/DTD/svg11.dtd"><svg class="icon" width="200px" height="200.00px" viewBox="0 0 1024 1024" version="1.1" xmlns="http://www.w3.org/2000/svg"><path fill="#999999" d="M544 108.8a113.92 113.92 0 0 0-80.64 38.4A120.32 120.32 0 0 0 428.8 224v179.2h166.4V108.8H544M544 64h64a32 32 0 0 1 32 32v352h-256V224a170.56 170.56 0 0 1 160-160zM832 304a96 96 0 0 1 96-96 96 96 0 0 1-96-96 96 96 0 0 1-96 96 96 96 0 0 1 96 96zM681.28 918.4H342.72c-25.6 0-45.12-25.92-45.12-60.16V448a22.4 22.4 0 0 1 44.8 0v410.24a32 32 0 0 0 3.52 15.36h332.16a32 32 0 0 0 3.52-15.36V448a22.4 22.4 0 0 1 44.8 0v410.24c0 34.24-19.2 60.16-45.12 60.16zM624 614.4h-224a22.4 22.4 0 1 1 0-44.8h224a22.4 22.4 0 0 1 0 44.8z" /></svg>