<?xml version="1.0" standalone="no"?><!DOCTYPE svg PUBLIC "-//W3C//DTD SVG 1.1//EN" "http://www.w3.org/Graphics/SVG/1.1/DTD/svg11.dtd"><svg class="icon" width="200px" height="200.00px" viewBox="0 0 1024 1024" version="1.1" xmlns="http://www.w3.org/2000/svg"><path fill="#999999" d="M768 796.444444c-45.511111 0-85.333333 39.822222-85.333333 85.333334s39.822222 85.333333 85.333333 85.333333 85.333333-39.822222 85.333333-85.333333-39.822222-85.333333-85.333333-85.333334m0 56.888889c17.066667 0 28.444444 11.377778 28.444444 28.444445s-11.377778 28.444444-28.444444 28.444444-28.444444-11.377778-28.444444-28.444444 11.377778-28.444444 28.444444-28.444445M256 796.444444c-45.511111 0-85.333333 39.822222-85.333333 85.333334S210.488889 967.111111 256 967.111111 341.333333 927.288889 341.333333 881.777778 301.511111 796.444444 256 796.444444m0 56.888889c17.066667 0 28.444444 11.377778 28.444444 28.444445s-11.377778 28.444444-28.444444 28.444444-28.444444-11.377778-28.444444-28.444444 11.377778-28.444444 28.444444-28.444445M512 734.833778c-165.432889 0-300.202667-117.134222-330.808889-277.333334h661.617778c-30.606222 160.199111-165.376 277.333333-330.808889 277.333334zM285.297778 149.333333l153.201778 246.499556H175.047111c0-98.588444 42.894222-184.888889 110.250667-246.499556z m594.261333 61.610667V149.333333h-140.856889L616.106667 395.832889H512L297.528889 56.888889C187.335111 130.844444 113.777778 254.122667 113.777778 395.832889 113.777778 617.699556 291.441778 796.444444 512 796.444444s398.222222-178.744889 398.222222-400.611555h-226.702222l91.932444-184.888889h104.106667z" /></svg>