<?xml version="1.0" standalone="no"?><!DOCTYPE svg PUBLIC "-//W3C//DTD SVG 1.1//EN" "http://www.w3.org/Graphics/SVG/1.1/DTD/svg11.dtd"><svg class="icon" width="200px" height="200.00px" viewBox="0 0 1024 1024" version="1.1" xmlns="http://www.w3.org/2000/svg"><path fill="#999999" d="M235.52779 61.4h2.7c94.5 1.4 171.4 81.9 171.4 179.4v168.8H240.82779c-97.5 0-177.9-76.9-179.4-171.4-0.7-47.1 17.1-91.4 50-124.9 33.1-33.4 77.1-51.9 124.1-51.9m0-61.4C104.22779 0-1.97221 107.4 0.02779 239.2 2.02779 368.7 111.32779 471 240.82779 471H430.02779c22.6 0 41-18.3 41-41V240.8C471.02779 111.3 368.72779 2 239.22779 0h-3.7zM788.52779 61.4c47 0 91 18.4 124 51.9s50.7 77.8 50 124.9c-1.4 94.5-81.9 171.4-179.4 171.4H614.42779V240.8c0-97.5 76.9-177.9 171.4-179.4h2.7m0-61.4h-3.7C655.32779 2 553.02779 111.3 553.02779 240.8V430c0 22.6 18.3 41 41 41h189.2c129.5 0 238.8-102.3 240.8-231.9C1026.02779 107.4 919.82779 0 788.52779 0zM409.62779 614.4v168.8c0 97.5-76.9 177.9-171.4 179.4h-2.7c-47 0-91-18.4-124-51.9s-50.7-77.8-50-124.9c1.4-94.5 81.9-171.4 179.4-171.4h168.7m20.5-61.4H240.82779C111.32779 553 2.02779 655.3 0.02779 784.8-1.97221 916.6 104.22779 1024 235.52779 1024h3.7C368.72779 1022 471.02779 912.7 471.02779 783.2V594c0-22.7-18.3-41-40.9-41zM783.22779 614.4c97.5 0 177.9 76.9 179.4 171.4 0.7 47.1-17.1 91.4-50 124.9-33 33.5-77 51.9-124 51.9h-2.7c-94.5-1.4-171.4-81.9-171.4-179.4V614.4h168.7m0-61.4H593.92779c-22.6 0-41 18.3-41 41v189.2c0 129.5 102.3 238.8 231.9 240.8h3.7c131.3 0 237.5-107.4 235.5-239.2C1022.02779 655.3 912.72779 553 783.22779 553z" /></svg>