<?xml version="1.0" standalone="no"?><!DOCTYPE svg PUBLIC "-//W3C//DTD SVG 1.1//EN" "http://www.w3.org/Graphics/SVG/1.1/DTD/svg11.dtd"><svg class="icon" width="200px" height="200.00px" viewBox="0 0 1024 1024" version="1.1" xmlns="http://www.w3.org/2000/svg"><path fill="#999999" d="M608 384 473.6 499.2C467.2 505.6 467.2 505.6 467.2 512c0 6.4 0 6.4 6.4 12.8 6.4 6.4 6.4 6.4 12.8 6.4 6.4 0 6.4 0 12.8-6.4l51.2-64L608 384zM595.2 620.8c-6.4 6.4-6.4 19.2 0 25.6 6.4 6.4 19.2 6.4 25.6 0 6.4-6.4 6.4-19.2 0-25.6C608 614.4 601.6 614.4 595.2 620.8zM352 377.6C339.2 384 339.2 396.8 352 403.2c6.4 6.4 19.2 6.4 25.6 0C384 396.8 384 384 371.2 377.6 364.8 371.2 358.4 371.2 352 377.6zM352 620.8c-6.4 6.4-6.4 19.2 0 25.6 6.4 6.4 19.2 6.4 25.6 0C384 640 384 627.2 371.2 620.8 364.8 614.4 358.4 614.4 352 620.8zM640 512c0 12.8 6.4 19.2 19.2 19.2 12.8 0 19.2-6.4 19.2-19.2 0-12.8-6.4-19.2-19.2-19.2C646.4 492.8 640 499.2 640 512zM313.6 492.8C300.8 492.8 294.4 499.2 294.4 512c0 12.8 6.4 19.2 19.2 19.2C320 531.2 326.4 524.8 326.4 512 326.4 499.2 320 492.8 313.6 492.8zM486.4 665.6c-12.8 0-19.2 6.4-19.2 19.2 0 12.8 6.4 19.2 19.2 19.2 12.8 0 19.2-6.4 19.2-19.2C499.2 672 492.8 665.6 486.4 665.6zM486.4 358.4c12.8 0 19.2-6.4 19.2-19.2C499.2 332.8 492.8 320 486.4 320 473.6 320 467.2 332.8 467.2 339.2 467.2 352 473.6 358.4 486.4 358.4zM486.4 755.2c-134.4 0-243.2-108.8-243.2-243.2 0-134.4 108.8-243.2 243.2-243.2 134.4 0 243.2 108.8 243.2 243.2C723.2 646.4 614.4 755.2 486.4 755.2zM608 921.6 358.4 921.6l-32-185.6 19.2 12.8c44.8 25.6 89.6 38.4 140.8 38.4 51.2 0 96-12.8 140.8-38.4l19.2-12.8L608 921.6zM364.8 102.4l249.6 0 32 185.6L627.2 275.2C582.4 249.6 537.6 236.8 486.4 236.8c-51.2 0-96 12.8-140.8 38.4L326.4 288 364.8 102.4zM755.2 460.8c-6.4-44.8-32-89.6-64-128l0 0-44.8-224C640 76.8 620.8 64 601.6 64L371.2 64C352 64 332.8 76.8 326.4 102.4L288 320l0 0C236.8 377.6 204.8 441.6 204.8 512c0 70.4 25.6 134.4 70.4 185.6l0 0L320 921.6C326.4 947.2 345.6 960 371.2 960l230.4 0c19.2 0 38.4-12.8 44.8-38.4l38.4-224 0 0c32-38.4 57.6-83.2 64-128l0-12.8 12.8 0c0 0 6.4 0 6.4 0 25.6 0 44.8-19.2 44.8-44.8 0-25.6-19.2-44.8-44.8-44.8 0 0 0 0-6.4 0l-12.8 0L755.2 460.8z" /></svg>