<?xml version="1.0" standalone="no"?><!DOCTYPE svg PUBLIC "-//W3C//DTD SVG 1.1//EN" "http://www.w3.org/Graphics/SVG/1.1/DTD/svg11.dtd"><svg class="icon" width="200px" height="200.00px" viewBox="0 0 1024 1024" version="1.1" xmlns="http://www.w3.org/2000/svg"><path fill="#999999" d="M528.514627 328.200904c-130.774439 0-262.758426-57.325613-262.758426-57.325613l83.600023 709.402929c0 0 88.580454 33.437553 176.762843 33.437553 87.382163 0 174.378539-33.437553 174.378539-33.437553l83.597977-709.402929C784.096607 270.875291 656.892483 328.200904 528.514627 328.200904zM533.285281 673.958672c-105.118106 0-191.96815-39.440267-191.96815-39.440267L307.882648 331.529719c0 0 98.5362 37.987173 216.727043 33.44881 118.191866-4.550643 214.039841-33.44881 214.039841-33.44881l-33.435507 297.627584C705.214025 629.157303 638.406456 673.958672 533.285281 673.958672zM524.928962 199.800535c-143.138024 0-259.173784 37.564547-259.173784 69.88158 0 16.863063 31.586392 32.054043 82.110089 42.73122-29.664623-8.346085-47.740304-19.309788-48.673559-31.367405-2.263553-29.54285 131.819235-53.157687 234.094596-53.157687 102.275361 0 201.471594 19.064194 217.370703 41.792848 6.827499 29.55206-90.789773 51.848878-217.370703 57.874105-5.469572 0.25992-10.894118 0.463558-16.277732 0.617054 2.631944 0.017396 5.270027 0.029676 7.92039 0.029676 143.128815 0 259.168668-26.193569 259.168668-58.519812C784.09763 237.365082 668.057777 199.800535 524.928962 199.800535zM633.391233 8.18645 522.320555 710.138686 560.499086 717.985398 671.575904 16.020882Z" /></svg>