<?xml version="1.0" standalone="no"?><!DOCTYPE svg PUBLIC "-//W3C//DTD SVG 1.1//EN" "http://www.w3.org/Graphics/SVG/1.1/DTD/svg11.dtd"><svg t="1583731416887" class="icon" viewBox="0 0 1024 1024" version="1.1" xmlns="http://www.w3.org/2000/svg" p-id="3918" xmlns:xlink="http://www.w3.org/1999/xlink" width="200" height="200"><defs><style type="text/css"></style></defs><path d="M1002.666667 273.770667V234.666667c0-70.4-57.578667-128-128-128H149.333333c-70.378667 0-128 57.6-128 128v39.104h981.333334zM21.333333 391.104V789.333333c0 70.421333 57.621333 128 128 128h725.333334c70.421333 0 128-57.578667 128-128V391.104H21.333333z m296 316.266667c0 11.733333-9.6 21.333333-21.333333 21.333333h-165.76c-11.733333 0-21.333333-9.6-21.333333-21.333333v-10.666667c0-11.733333 9.6-21.333333 21.333333-21.333333h165.781333c11.733333 0 21.333333 9.6 21.333334 21.333333v10.666667z m319.125334-138.666667c0 11.733333-9.621333 21.333333-21.333334 21.333333H130.24c-11.733333 0-21.333333-9.6-21.333333-21.333333v-10.666667c0-11.733333 9.6-21.333333 21.333333-21.333333h484.885333c11.712 0 21.333333 9.6 21.333334 21.333333v10.666667z" fill="#0596FF" p-id="3919"></path></svg>