<?xml version="1.0" standalone="no"?><!DOCTYPE svg PUBLIC "-//W3C//DTD SVG 1.1//EN" "http://www.w3.org/Graphics/SVG/1.1/DTD/svg11.dtd"><svg t="1583218871155" class="icon" viewBox="0 0 1024 1024" version="1.1" xmlns="http://www.w3.org/2000/svg" p-id="3381" xmlns:xlink="http://www.w3.org/1999/xlink" width="200" height="200"><defs><style type="text/css"></style></defs><path d="M802.176 463.36H353.792V256.128C353.792 165.76 424.832 92.16 512 92.16c87.232 0 158.208 73.6 158.208 164.096v85.76c0 13.824 10.752 24.96 24.064 24.96a24.576 24.576 0 0 0 24.128-24.96v-85.76C718.4 138.112 625.792 42.048 512 42.048S305.6 138.112 305.6 256.192V463.36H221.824c-39.232 0-71.168 33.152-71.168 73.856v372.032c0 40.704 31.936 73.792 71.168 73.792h580.352c39.232 0 71.168-33.088 71.168-73.792V537.152c0-40.704-31.936-73.856-71.168-73.856z m22.976 445.824a23.424 23.424 0 0 1-23.04 23.744H221.888a23.424 23.424 0 0 1-22.976-23.744V537.152c0-13.12 10.304-23.808 23.04-23.808h580.288c12.672 0 22.976 10.688 22.976 23.808v372.032zM512 619.392a39.936 39.936 0 0 0-39.168 40.64v126.208c0 22.464 17.536 40.704 39.168 40.704a39.936 39.936 0 0 0 39.168-40.704v-126.208A39.936 39.936 0 0 0 512 619.392z" fill="#333333" p-id="3382"></path></svg>