<?xml version="1.0" standalone="no"?><!DOCTYPE svg PUBLIC "-//W3C//DTD SVG 1.1//EN" "http://www.w3.org/Graphics/SVG/1.1/DTD/svg11.dtd"><svg t="1583730083010" class="icon" viewBox="0 0 1024 1024" version="1.1" xmlns="http://www.w3.org/2000/svg" p-id="2474" xmlns:xlink="http://www.w3.org/1999/xlink" width="200" height="200"><defs><style type="text/css"></style></defs><path d="M44.8 512C44.8 768 256 979.2 512 979.2S979.2 768 979.2 512 768 44.8 512 44.8 44.8 256 44.8 512z" fill="#FBE945" p-id="2475"></path><path d="M153.6 512c0 198.4 160 358.4 358.4 358.4 198.4 0 358.4-160 358.4-358.4 0-198.4-160-358.4-358.4-358.4-198.4 0-358.4 160-358.4 358.4z" fill="#FBB11B" p-id="2476"></path><path d="M870.4 512c0-76.8-25.6-153.6-70.4-211.2-57.6-44.8-134.4-70.4-211.2-70.4-198.4 0-358.4 160-358.4 358.4 0 76.8 25.6 153.6 70.4 211.2 57.6 44.8 134.4 70.4 211.2 70.4 198.4 0 358.4-160 358.4-358.4z" fill="#FDC72F" p-id="2477"></path><path d="M550.4 307.2l76.8 153.6 166.4 32-115.2 128 19.2 172.8-147.2-76.8-153.6 76.8 25.6-172.8-115.2-128 160-32 83.2-153.6" fill="#FBB11B" p-id="2478"></path><path d="M512 268.8l83.2 153.6 160 32-115.2 128 19.2 172.8-147.2-76.8-147.2 76.8 19.2-172.8-115.2-128 160-32L512 268.8" fill="#FBE945" p-id="2479"></path></svg>