<?xml version="1.0" standalone="no"?><!DOCTYPE svg PUBLIC "-//W3C//DTD SVG 1.1//EN" "http://www.w3.org/Graphics/SVG/1.1/DTD/svg11.dtd"><svg t="1583820215864" class="icon" viewBox="0 0 1024 1024" version="1.1" xmlns="http://www.w3.org/2000/svg" p-id="2425" xmlns:xlink="http://www.w3.org/1999/xlink" width="200" height="200"><defs><style type="text/css"></style></defs><path d="M685.089174 369.540428L276.676413 200.13311l82.133626-33.796734 408.759661 168.842453z" fill="#1296db" p-id="2426"></path><path d="M731.404012 602.25356c-24.14798 10.060123-50.760081-7.68196-50.760081-33.841759V369.110639l82.48155-34.361599v219.925898a51.543933 51.543933 0 0 1-31.721469 47.578622z" fill="#1296db" p-id="2427"></path><path d="M99.682303 303.670208c-13.740956 0-26.693965-8.28878-32.013111-21.845541-6.92983-17.667382 1.794879-37.59934 19.462261-44.529169L484.857826 81.392752c16.10684-6.29231 33.824363-6.325056 49.932226-0.067538l401.987421 155.936515c17.683754 6.862291 26.459628 26.761504 19.597337 44.461631-6.862291 17.701151-26.794249 26.459628-44.461631 19.597337L509.924735 145.385205 112.198362 301.286927a34.287921 34.287921 0 0 1-12.516059 2.383281zM509.874593 933.185668c-18.97619 0-34.361599-15.385409-34.361599-34.361599V434.404738c0-18.97619 15.385409-34.361599 34.361599-34.361599s34.361599 15.385409 34.361599 34.361599V898.824069c0 18.97619-15.386432 34.361599-34.361599 34.361599z" fill="#1296db" p-id="2428"></path><path d="M510.10893 947.346179c-9.328459 0-18.640546-1.87879-27.297716-5.621021l-376.11517-163.033143C81.561597 767.82041 65.303308 743.072773 65.303308 715.63998V269.291213a34.367739 34.367739 0 0 1 15.133676-28.472472c9.462512-6.392594 21.4925-7.633864 32.063253-3.405563l397.440871 159.979598L911.626653 237.363036c10.570753-4.194532 22.566972-2.919493 31.995715 3.489474a34.364669 34.364669 0 0 1 15.083533 28.438703v450.275193c0 27.767414-16.560164 52.650127-42.163285 63.387679L536.65247 942.04443a69.081355 69.081355 0 0 1-26.54354 5.301749zM134.026506 320.162834v395.477146l376.082424 163.016771 379.873774-159.090345V319.961242l-354.606297 141.28891c-16.492626 6.576789-34.647101 6.526647-51.139727-0.11768L134.026506 320.162834z" fill="#1296db" p-id="2429"></path></svg>