<?xml version="1.0" standalone="no"?><!DOCTYPE svg PUBLIC "-//W3C//DTD SVG 1.1//EN" "http://www.w3.org/Graphics/SVG/1.1/DTD/svg11.dtd"><svg t="1583579818391" class="icon" viewBox="0 0 1024 1024" version="1.1" xmlns="http://www.w3.org/2000/svg" p-id="2422" xmlns:xlink="http://www.w3.org/1999/xlink" width="200" height="200"><defs><style type="text/css"></style></defs><path d="M843.008 326.656c-20.224 0-37.888 16.384-37.888 36.608v547.584c0 20.224-16.64 36.096-36.864 36.096H256c-20.224 0-37.12-16.128-37.12-36.096v-549.12c0-20.224-14.848-36.608-35.072-36.608s-35.072 16.384-35.072 36.608v549.12c0 60.416 46.592 113.152 107.008 113.152h512c60.416 0 112.896-52.736 112.896-113.152V363.264c0.256-19.968-17.408-36.608-37.632-36.608z m-407.04 438.016V362.24c0-20.224-14.848-36.608-35.072-36.608-20.224 0-35.072 16.384-35.072 36.608v402.176c0 20.224 14.848 36.608 35.072 36.608 20.224 0 35.072-16.128 35.072-36.352z m221.952 0V362.24c0-20.224-17.92-36.608-37.888-36.608s-37.888 16.384-37.888 36.608v402.176c0 20.224 17.92 36.608 37.888 36.608s37.888-16.128 37.888-36.352z m324.347-583.68H805.12v-74.496C805.12 46.08 755.712 0.256 695.808 0.256L328.96 0c-60.416 0-110.08 45.824-110.08 106.24v74.752H41.733c-20.224 0-36.608 14.848-36.608 35.072s16.384 35.072 36.608 35.072h940.539c20.224 0 36.608-14.848 36.608-35.072s-16.39-35.072-36.613-35.072z m-253.435 0H290.048v-74.496c0-20.224 18.944-36.352 39.168-36.352h366.592c19.968 0 33.28 15.872 33.28 36.352l-0.256 74.496z" fill="#8a8a8a" p-id="2423"></path></svg>