<?xml version="1.0" standalone="no"?><!DOCTYPE svg PUBLIC "-//W3C//DTD SVG 1.1//EN" "http://www.w3.org/Graphics/SVG/1.1/DTD/svg11.dtd"><svg t="1583218647707" class="icon" viewBox="0 0 1024 1024" version="1.1" xmlns="http://www.w3.org/2000/svg" p-id="2440" xmlns:xlink="http://www.w3.org/1999/xlink" width="200" height="200"><defs><style type="text/css"></style></defs><path d="M787.79 378.758V339.38c0-152.345-123.918-276.262-276.26-276.262-152.345 0-276.261 123.918-276.261 276.262v39.378c-64.52 3.824-115.882 57.54-115.882 122.999v335.791c0 67.932 55.306 123.235 123.238 123.235h537.808c67.932 0 123.24-55.303 123.24-123.235V501.757c-0.001-65.46-51.364-119.175-115.883-122.999zM511.53 123.601c119.014 0 215.824 96.809 215.824 215.779v39.141H295.707V339.38c0-118.97 96.807-215.779 215.824-215.779z m331.656 713.947c0 34.6-28.152 62.755-62.754 62.755H242.625c-34.603 0-62.755-28.156-62.755-62.755V501.757c0-34.601 28.152-62.754 62.755-62.754h537.808c34.602 0 62.754 28.153 62.754 62.754v335.791z" p-id="2441" fill="#8a8a8a"></path><path d="M511.53 510.43c-64.706 0-117.336 52.673-117.336 117.38 0 54.25 37.002 100.02 87.092 113.403v82.168c0 16.71 13.534 30.24 30.244 30.24s30.24-13.53 30.24-30.24v-82.16c50.125-13.376 87.137-59.155 87.137-113.411 0.001-64.707-52.629-117.38-117.376-117.38z m0 174.275c-31.377 0-56.942-25.519-56.942-56.895 0-31.378 25.565-56.896 56.943-56.896 31.42 0 56.94 25.518 56.94 56.896-0.001 31.376-25.52 56.895-56.94 56.895z" p-id="2442" fill="#8a8a8a"></path></svg>