<?xml version="1.0" standalone="no"?><!DOCTYPE svg PUBLIC "-//W3C//DTD SVG 1.1//EN" "http://www.w3.org/Graphics/SVG/1.1/DTD/svg11.dtd"><svg t="1583300158257" class="icon" viewBox="0 0 1024 1024" version="1.1" xmlns="http://www.w3.org/2000/svg" p-id="2362" xmlns:xlink="http://www.w3.org/1999/xlink" width="200" height="200"><defs><style type="text/css"></style></defs><path d="M857.9375 490.66666667c0-49.125 30.84375001-90.75 74.0625-107.34375-10.3125-40.5-26.25-78.65625001-47.0625-113.71875C842.5625 288.44791667 791.375 280.76041667 756.6875 245.97916667c-34.6875-34.6875-42.375-85.96875001-23.53125001-128.25C698 96.91666667 659.84375001 80.97916667 619.34375001 70.66666667c-16.6875 43.21875001-58.3125 74.0625-107.34375001 74.0625-49.125 0-90.75-30.84375001-107.34375001-74.0625-40.5 10.3125-78.65625001 26.25-113.71874999 47.0625 18.84375001 42.375 11.15625001 93.5625-23.53125001 128.25-34.6875 34.6875-85.96875001 42.375-128.24999998 23.625C118.25 304.66666667 102.3125 342.82291667 92 383.32291667c43.21875001 16.6875 74.0625 58.3125 74.0625 107.34375 0 49.125-30.84375001 90.75-74.0625 107.34375 10.3125 40.5 26.25 78.65625001 47.0625 113.71875C181.4375 692.88541667 232.625 700.57291667 267.3125 735.35416667c34.6875 34.6875 42.375 85.96875001 23.53125001 128.25C326 884.41666667 364.15624999 900.35416667 404.65624999 910.66666667c16.6875-43.21875001 58.3125-74.0625 107.34375001-74.0625 49.125 0 90.75 30.84375001 107.34375001 74.0625 40.5-10.3125 78.65625001-26.25 113.71874999-47.0625-18.84375001-42.375-11.15625001-93.5625 23.53125001-128.25 34.6875-34.6875 85.96875001-42.375 128.24999998-23.625C905.75 676.66666667 921.6875 638.51041667 932 598.01041667c-43.21875001-16.59375001-74.0625-58.21875001-74.0625-107.34375zM512 605.97916667c-63.65625001 0-115.3125-51.65625001-115.3125-115.3125s51.65625001-115.3125 115.3125-115.3125 115.3125 51.65625001 115.3125 115.3125-51.65625001 115.3125-115.3125 115.3125z" fill="#ffffff" p-id="2363"></path></svg>