<?xml version="1.0" standalone="no"?><!DOCTYPE svg PUBLIC "-//W3C//DTD SVG 1.1//EN" "http://www.w3.org/Graphics/SVG/1.1/DTD/svg11.dtd"><svg t="1583220121511" class="icon" viewBox="0 0 1024 1024" version="1.1" xmlns="http://www.w3.org/2000/svg" p-id="4800" xmlns:xlink="http://www.w3.org/1999/xlink" width="200" height="200"><defs><style type="text/css"></style></defs><path d="M798.24746667 576.85831111c-43.77173333-43.77173333-95.6928-76.36053333-152.30613334-96.24426667 61.17013333-42.944 101.35466667-114.0576 101.35466667-194.4224 0-130.90346667-106.46293333-237.50506667-237.50506667-237.50506666-130.90346667 0-237.50506667 106.46293333-237.50506666 237.50506666 0 80.36586667 40.04373333 151.4784 101.35466666 194.4224-56.6144 20.0224-108.53333333 52.61013333-152.30613333 96.24426667-77.05173333 77.05173333-119.4432 179.50933333-119.4432 288.4576 0 25.26933333 0 44.7392 0.13866667 65.8656 0.13866667 18.2272 14.91306667 33.00266667 33.14026666 33.00266667h0.13866667c18.36586667-0.13866667 33.00266667-15.05173333 33.00266667-33.27893334-0.13866667-20.9888-0.13866667-40.32106667-0.13866667-65.45173333 0-188.34666667 153.2736-341.75786667 341.75786667-341.75786667s341.75786667 153.2736 341.75786666 341.75786667c0 25.1296 0 44.46293333-0.13866666 65.45173333-0.13866667 18.36586667 14.63786667 33.27893333 33.00266666 33.27893334h0.13866667c18.2272 0 33.00266667-14.77546667 33.14026667-33.00266667 0.13866667-21.12746667 0.13866667-40.59733333 0.13866666-65.8656-0.2752-108.94933333-42.66773333-211.40693333-119.7184-288.4576zM338.5664 286.19057778c0-94.44906667 76.77546667-171.2256 171.2256-171.2256s171.2256 76.77546667 171.2256 171.2256-76.77546667 171.2256-171.2256 171.2256-171.2256-76.91306667-171.2256-171.2256z" fill="" p-id="4801"></path></svg>