<?xml version="1.0" standalone="no"?><!DOCTYPE svg PUBLIC "-//W3C//DTD SVG 1.1//EN" "http://www.w3.org/Graphics/SVG/1.1/DTD/svg11.dtd"><svg t="1583565471056" class="icon" viewBox="0 0 1024 1024" version="1.1" xmlns="http://www.w3.org/2000/svg" p-id="4362" xmlns:xlink="http://www.w3.org/1999/xlink" width="200" height="200"><defs><style type="text/css"></style></defs><path d="M543.881071 632.752906s-119.818623 151.27709-260.984977 151.27709c-141.243145 0-170.909836-71.875816-170.909836-123.581352 0-51.628746 29.35953-107.76253 149.536508-115.902312 120.125784-8.139783 282.409499 88.206574 282.409498 88.206574h-0.051193zM1023.872272 696.924084l-329.328434-110.731758s25.315236-37.883265 52.31986-112.190776c27.030221-74.281915 30.895338-115.057618 30.895338-115.057618l-213.221347-1.791776v-72.7973l258.220522-1.791776V231.03672h-258.271716V113.880165h-126.448194v117.182152h-240.865892v51.475166l240.865892-1.714986v78.121435H244.859249v40.775703h397.723084s-4.377053 33.096663-19.632746 74.281915a1645.720685 1645.720685 0 0 1-30.972128 77.225547s-186.728659-65.323035-285.148357-65.323035c-98.368504 0-218.084739 39.52146-229.654493 154.246319-11.569754 114.699263 55.749831 176.7971 150.56038 199.655043 94.810549 22.985927 182.351606-0.230371 258.578878-37.524909 76.227272-37.268941 151.021122-121.968754 151.021122-121.968754l383.849619 186.421497a189.416323 189.416323 0 0 1-186.856643 157.241145H189.595757A189.365129 189.365129 0 0 1 0.000256 834.762855v-645.03937A189.44192 189.44192 0 0 1 189.262998 0.07679h645.03937A189.416323 189.416323 0 0 1 1023.872272 189.365129v507.584552z" fill="#02A9F1" p-id="4363"></path></svg>